<svg width="193" height="153" viewBox="0 0 193 153" fill="none" xmlns="http://www.w3.org/2000/svg">
<g id="Frame 39CD Logo 3" clip-path="url(#clip0_776_3153)">
<path id="Vector" d="M51.5506 9.76225C51.7631 9.76211 51.9773 9.76196 52.1964 9.76182C52.7825 9.76146 53.3702 9.76211 53.9563 9.76296C54.5905 9.76366 55.2247 9.76343 55.8655 9.76329C56.9629 9.76321 58.057 9.76373 59.1527 9.76466C60.7399 9.76603 62.3237 9.76644 63.9176 9.76665C66.4909 9.76702 69.0642 9.76812 71.6376 9.7697C74.1445 9.77121 76.6348 9.77239 79.1417 9.7731C79.3725 9.77316 79.3725 9.77316 79.6099 9.77322C80.3836 9.77345 81.1572 9.77366 81.9342 9.77386C88.3426 9.77558 94.7677 9.77851 101.193 9.7822C101.394 10.1836 101.379 10.4357 101.379 10.8835C101.379 11.0458 101.379 11.2085 101.379 11.3761C101.379 11.5552 101.378 11.7326 101.377 11.9184C101.378 12.1058 101.378 12.2932 101.378 12.4873C101.377 13.1109 101.376 13.7328 101.375 14.3614C101.374 14.7926 101.374 15.2239 101.374 15.6534C101.374 16.6734 101.372 17.6934 101.371 18.7051C101.369 19.8661 101.368 21.0271 101.367 22.1881C101.365 24.5764 101.362 26.9647 101.359 29.353C101.156 29.3528 100.954 29.3526 100.744 29.3524C95.88 29.3488 91.0156 29.3462 86.1346 29.3445C85.5286 29.3443 84.9243 29.3441 84.3249 29.3439C84.2043 29.3439 84.0842 29.3437 83.9597 29.3437C82.0338 29.343 80.108 29.3416 78.1821 29.3401C76.1899 29.3385 74.1976 29.3377 72.2053 29.3372C71.0947 29.337 69.9807 29.3366 68.8683 29.3354C64.3691 29.3306 59.8699 29.3403 55.3708 29.3978C54.9374 29.403 54.5041 29.4075 54.0692 29.4112C50.8483 29.4405 47.6607 29.5821 44.5561 30.5341C44.3911 30.5838 44.2257 30.6332 44.0564 30.6842C39.9059 31.9795 35.9379 34.1505 32.8001 37.1691C32.4498 37.4742 32.4498 37.4742 32.1178 37.4742C32.063 37.6384 32.0082 37.8026 31.9518 37.9718C31.7675 38.1609 31.5832 38.3499 31.3939 38.5324C26.9114 42.9607 24.2052 49.1304 23.5245 55.2836C23.4847 55.6369 23.4384 55.9885 23.3909 56.3401C22.6238 62.9742 24.8768 70.4045 28.8862 75.745C29.3809 76.3686 29.8989 76.964 30.4418 77.5528C30.7556 77.8894 31.0511 78.2344 31.3466 78.586C32.8674 80.3109 34.6504 81.5714 36.5597 82.8153C36.8702 83.0193 37.179 83.2266 37.4878 83.4356C41.0406 85.7575 45.1912 86.9185 49.3749 87.3663C49.6621 87.3991 49.6621 87.3991 49.956 87.4325C50.4275 87.4787 50.8957 87.51 51.3672 87.5322C51.6046 87.5454 51.6046 87.5454 51.8453 87.5587C56.992 87.7038 61.9726 86.4624 66.4718 84.0426C66.6644 83.9423 66.857 83.8419 67.0562 83.7391C69.4469 82.4454 72.0368 80.6708 73.697 78.4815C74.479 77.7203 75.5565 77.8579 76.5692 77.8646C76.7502 77.8644 76.9295 77.8639 77.1154 77.8637C77.7114 77.8631 78.3075 77.8648 78.9085 77.8666C79.3252 77.8668 79.7419 77.8671 80.1569 77.8668C81.0319 77.8673 81.9002 77.8685 82.7801 77.8708C83.8941 77.8737 85.0048 77.8743 86.1171 77.8741C86.9788 77.8741 87.8437 77.8751 88.7071 77.8764C89.1171 77.8768 89.5272 77.8772 89.9373 77.8772C96.1631 77.8811 96.1631 77.8811 96.877 78.2371C96.6711 79.3749 96.3225 80.2771 95.7663 81.2888C95.6912 81.4277 95.616 81.5658 95.5388 81.7101C94.976 82.7417 94.3817 83.7335 93.7292 84.712C93.6514 84.8283 93.5738 84.9442 93.4935 85.0637C92.0325 87.2529 90.4885 89.2598 88.6954 91.2002C88.287 91.6431 87.8886 92.0909 87.4918 92.5436C86.8709 93.2353 86.2101 93.8572 85.5161 94.4676C85.2472 94.7031 84.9799 94.9436 84.7192 95.1874C77.5305 101.871 67.785 105.752 58.1558 106.946C58.0294 106.963 57.9034 106.979 57.7723 106.996C56.2947 107.158 54.8171 107.143 53.3229 107.143C52.858 107.144 52.3948 107.146 51.93 107.15C45.5547 107.169 39.4783 105.829 33.5016 103.468C33.3715 103.416 33.2409 103.365 33.1081 103.312C29.8541 102.019 26.8657 100.211 24.0433 98.1543C23.9263 98.0705 23.8092 97.9868 23.6897 97.9005C20.2032 95.3795 16.8496 92.4605 14.243 89.0273C14.0455 88.7786 14.0455 88.7786 13.8446 88.5265C12.2358 86.4865 10.8562 84.347 9.61102 82.0748C9.42507 81.7348 9.23747 81.3964 9.04821 81.0581C8.07532 79.3 7.32158 77.4756 6.60769 75.6015C6.56303 75.4862 6.51837 75.371 6.47238 75.2515C1.90679 63.4593 2.70369 50.2076 7.74909 38.7637C9.45911 34.9657 11.551 31.3501 14.2405 28.1823C14.3798 28.0148 14.5194 27.8472 14.6622 27.6748C16.6711 25.2699 18.763 22.9977 21.2201 21.0572C21.421 20.894 21.6202 20.7304 21.8195 20.5679C23.0696 19.5496 24.3264 18.5943 25.7044 17.7484C25.8837 17.6353 26.063 17.5228 26.2473 17.4051C32.8217 13.3251 39.944 10.8373 47.664 9.95825C47.7852 9.94343 47.9064 9.92856 48.0326 9.9133C49.1865 9.78294 50.3237 9.76968 51.4859 9.77249L51.5506 9.76225Z" fill="#8660D0"/>
<path id="Vector_2" d="M156.642 2.79638C156.823 2.85924 156.823 2.85924 157.005 2.92326C160.973 4.31477 164.841 6.1574 168.262 8.59545C168.384 8.68153 168.507 8.76794 168.634 8.85584C170.427 10.118 172.07 11.4597 173.647 12.9856C173.905 13.2261 174.169 13.4516 174.442 13.6739C174.829 13.9973 175.147 14.3075 175.467 14.6939C175.856 15.1516 176.257 15.5762 176.692 15.9892C177.544 16.8301 178.26 17.7804 178.983 18.7258C179.217 19.031 179.456 19.3328 179.697 19.6347C183.881 24.9585 186.919 31.4931 188.364 38.0443C188.408 38.245 188.408 38.245 188.453 38.449C190.926 49.9924 189.077 61.6685 183.688 72.1173C183.607 72.274 183.526 72.4308 183.442 72.5917C182.926 73.5719 182.36 74.499 181.732 75.4112C181.652 75.5281 181.571 75.645 181.488 75.7644C180.145 77.7049 178.749 79.5459 177.138 81.2874C176.8 81.6572 176.469 82.032 176.142 82.4135C175.256 83.4285 174.299 84.354 173.27 85.233C173.034 85.4387 172.802 85.6493 172.574 85.8633C163.294 94.5706 150.327 97.672 138.042 97.672C137.635 97.6723 137.227 97.6725 136.82 97.6729C135.824 97.6733 134.828 97.6727 133.832 97.6718C133.015 97.671 132.198 97.6706 131.374 97.6704C118.342 97.6667 105.309 97.5738 92.1934 97.4846C92.3307 96.6819 92.8574 96.3717 93.48 95.909C93.6859 95.7519 93.8934 95.5939 94.0993 95.438C94.1993 95.3625 94.3002 95.2871 94.4031 95.2091C95.1021 94.6817 95.7313 94.1311 96.3456 93.5008C96.4906 93.3578 96.6361 93.2156 96.7855 93.0679C97.6721 92.1906 98.5287 91.3099 99.3422 90.3479C99.4161 90.2607 99.4902 90.1738 99.5664 90.0842C102.455 86.6677 105.228 82.7535 106.921 78.5906C107.149 78.0831 107.149 78.0831 107.481 77.9172C107.917 77.9021 108.349 77.8971 108.786 77.8994C108.99 77.8996 108.99 77.8996 109.199 77.8998C109.659 77.9002 110.119 77.9019 110.579 77.9035C110.907 77.9042 111.236 77.9048 111.565 77.9052C112.275 77.9062 112.986 77.9079 113.69 77.9098C114.817 77.9129 115.948 77.9143 117.077 77.9158C120.281 77.9197 123.485 77.9257 126.689 77.9332C128.466 77.9373 130.226 77.94 132.002 77.9417C132.937 77.9425 133.878 77.9442 134.808 77.9473C144.371 77.9782 153.07 77.186 160.375 70.2848C160.599 70.0941 160.823 69.9034 161.049 69.7143C166.179 65.2031 169.168 58.1045 169.666 51.3046C170.054 43.6421 168.034 35.7475 162.792 29.9094C162.53 29.6242 162.264 29.3439 161.994 29.0669C161.582 28.6456 161.248 28.2725 161.026 27.7218H160.694V27.3901C160.597 27.347 160.5 27.3037 160.4 27.2593C160.005 27.0453 159.741 26.8098 159.417 26.498C154.187 21.8044 146.783 19.3165 139.827 19.5985C139.123 19.6487 138.422 19.7223 137.718 19.8058C137.529 19.8282 137.341 19.8505 137.147 19.8736C132.449 20.4624 127.933 22.1624 124.048 24.899C123.879 25.018 123.709 25.1378 123.533 25.2605C122.27 26.1777 120.827 27.2342 119.864 28.4781C119.511 28.906 119.238 29.1764 118.687 29.3041C118.224 29.3333 117.771 29.3318 117.307 29.3188C117.14 29.3177 116.972 29.3167 116.799 29.3157C116.266 29.3111 115.732 29.2997 115.199 29.2883C114.837 29.2848 114.475 29.2815 114.113 29.2788C113.454 29.2719 112.795 29.2645 112.138 29.2504C111.938 29.2464 111.938 29.2464 111.737 29.2423C111.434 29.2157 111.434 29.2157 111.268 29.0499C111.251 28.8077 111.246 28.5656 111.245 28.3235C111.244 28.0879 111.244 28.0879 111.243 27.8475C111.243 27.5871 111.243 27.5871 111.243 27.3217C111.243 27.1393 111.242 26.9585 111.242 26.7711C111.24 26.1674 111.24 25.562 111.24 24.9633C111.239 24.5453 111.239 24.1274 111.238 23.7077C111.237 22.8287 111.237 21.9497 111.237 21.0707C111.237 20.0557 111.235 19.0473 111.233 18.019C111.23 17.0422 111.229 16.062 111.23 15.0834C111.229 14.6671 111.229 14.2525 111.227 13.8362C111.226 13.2557 111.226 12.6736 111.227 12.0948C111.226 11.9223 111.225 11.7498 111.224 11.5723C111.225 11.4139 111.226 11.2555 111.226 11.093C111.226 10.9557 111.226 10.8177 111.226 10.6767C111.287 10.1294 111.454 9.76451 111.872 9.40461C111.98 9.33412 112.088 9.2638 112.197 9.19066C112.318 9.11072 112.44 9.03061 112.564 8.94851C112.695 8.86492 112.825 8.781 112.958 8.69475C113.092 8.60702 113.227 8.51895 113.365 8.42939C126.248 0.0869534 141.92 -2.51695 156.53 2.67427L156.642 2.79638Z" fill="#4F80E8"/>
<path id="Vector_3" d="M179.764 120.415C179.564 120.462 179.552 121.157 179.528 132.025C179.505 138.383 179.505 143.776 179.528 144.012L179.564 144.435L181.652 144.412L183.739 144.388L183.798 140.22C183.846 137.394 183.905 135.922 184.011 135.652C184.188 135.133 184.919 134.38 185.438 134.156C185.922 133.956 186.901 133.944 187.255 134.133C187.691 134.38 188.175 134.851 188.375 135.228C188.576 135.604 188.611 136.299 188.67 141.822L188.694 144.412L190.628 144.424C191.69 144.435 192.657 144.412 192.775 144.388C192.964 144.329 192.987 144.035 192.999 140.044C193.011 135.145 192.905 134.086 192.256 132.885C191.902 132.225 190.852 131.047 190.628 131.047C190.557 131.047 190.369 130.942 190.192 130.812C189.378 130.212 187.549 130.047 186.346 130.471C185.721 130.694 184.671 131.354 184.176 131.837C184.093 131.919 183.964 131.99 183.905 131.99C183.846 131.99 183.798 129.694 183.798 126.22V120.45H182.041C181.074 120.45 180.213 120.427 180.118 120.403C180.036 120.38 179.871 120.38 179.764 120.415Z" fill="#8660D0"/>
<path id="Vector_4" d="M8.77285 123.448C6.40725 123.883 4.60656 124.881 2.8294 126.759C2.25273 127.37 1.77018 127.934 1.77018 127.992C1.77018 128.051 1.60541 128.333 1.40534 128.626C1.21703 128.908 1.08757 129.202 1.12288 129.26C1.15818 129.331 1.14642 129.378 1.08757 129.378C1.02872 129.378 0.946339 129.472 0.911033 129.577C0.863955 129.695 0.746263 130 0.65211 130.258C0.0165739 131.82 -0.183502 134.356 0.181342 136.094C1.0758 140.357 4.44178 143.703 8.5963 144.49C9.71438 144.701 12.2094 144.689 13.0098 144.478C13.1392 144.443 13.4805 144.361 13.7747 144.29C15.2341 143.938 17.5644 142.47 18.6354 141.226C18.8826 140.944 19.2121 140.568 19.3769 140.38C19.5299 140.204 19.6593 140.016 19.6593 139.969C19.6593 139.922 19.7653 139.758 19.8947 139.593C20.0242 139.429 20.1301 139.241 20.1301 139.159C20.1301 139.089 19.6947 138.807 19.165 138.525C18.6236 138.255 17.7998 137.832 17.329 137.586C16.87 137.327 16.4581 137.128 16.4346 137.128C16.411 137.128 16.2581 137.339 16.0815 137.609C14.987 139.253 12.7626 140.415 10.703 140.415C8.91407 140.415 6.90156 139.476 5.79525 138.126C5.31271 137.539 5.21855 137.362 4.7831 136.411C4.21817 135.19 4.21817 133.159 4.77133 131.609C5.05378 130.822 5.92471 129.577 6.5014 129.131C6.78385 128.92 7.03101 128.708 7.06631 128.673C7.19577 128.544 8.102 128.086 8.65516 127.886C9.11415 127.722 9.58492 127.675 10.8324 127.675H12.4213L13.4452 128.18C14.5633 128.72 15.6225 129.601 16.0344 130.329C16.3169 130.845 16.4817 130.881 16.9289 130.576C17.1054 130.458 17.435 130.282 17.6586 130.2C17.8822 130.118 18.1293 130 18.2 129.941C18.2706 129.883 18.706 129.66 19.165 129.437C19.6123 129.225 20.0242 128.979 20.0713 128.908C20.2831 128.567 18.6119 126.524 17.2702 125.479C16.6935 125.045 16.1757 124.669 16.1168 124.669C15.8932 124.634 15.8226 124.599 15.4224 124.352C15.1988 124.211 14.9281 124.094 14.8222 124.094C14.7281 124.094 14.5986 124.047 14.528 123.988C14.3867 123.847 13.2804 123.542 12.4331 123.389C11.5033 123.237 9.79676 123.26 8.77285 123.448Z" fill="#8660D0"/>
<path id="Vector_5" d="M128.483 133.705C128.494 139.421 128.53 144.168 128.554 144.251C128.696 144.617 136.893 144.393 138.183 143.979C140.336 143.283 141.98 142.279 143.163 140.909C143.979 139.988 144.63 138.984 144.547 138.795C144.511 138.712 144.535 138.677 144.606 138.712C144.843 138.854 145.588 136.752 145.789 135.406C146.073 133.351 145.753 130.977 144.985 129.501C144.878 129.3 144.795 129.123 144.783 129.088C144.76 128.816 143.719 127.375 142.985 126.608C141.956 125.509 140.738 124.671 139.496 124.199C139.023 124.009 138.526 123.821 138.396 123.762C137.721 123.466 136.467 123.384 132.599 123.336L128.459 123.289L128.483 133.705ZM136.728 127.399C138.762 127.907 140.442 129.525 141.128 131.65C141.708 133.434 141.566 135.453 140.738 137.059C140.217 138.063 139.2 139.114 138.218 139.669C137.142 140.271 136.716 140.366 134.788 140.366H132.954L132.919 133.882C132.895 128.769 132.919 127.375 133.037 127.293C133.285 127.127 135.971 127.21 136.728 127.399Z" fill="#8660D0"/>
<path id="Vector_6" d="M110.424 127.678V130.41H109.273H108.121V132.084V133.746L109.146 133.723C109.71 133.711 110.229 133.734 110.298 133.782C110.39 133.841 110.424 134.756 110.424 136.798C110.424 138.413 110.47 140.04 110.528 140.408C110.77 141.928 111.852 143.365 113.361 144.148C114.121 144.552 114.247 144.576 115.491 144.635C116.297 144.659 117.011 144.623 117.311 144.552L117.794 144.41V142.7V140.978H116.838C116.009 140.978 115.825 140.942 115.422 140.669C114.662 140.159 114.651 140.075 114.593 136.786C114.558 134.423 114.581 133.841 114.708 133.794C114.789 133.758 115.526 133.723 116.343 133.711L117.829 133.675L117.852 132.048L117.875 130.421L116.251 130.386L114.627 130.35L114.593 127.643L114.57 124.947H112.497H110.424V127.678Z" fill="#8660D0"/>
<path id="Vector_7" d="M80.1573 130.199C77.9994 130.543 76.7981 131.1 75.5849 132.346C74.7685 133.176 74.2901 133.994 73.9054 135.227C73.6019 136.224 73.5903 138.738 73.8935 139.675C74.2785 140.873 74.7218 141.608 75.4917 142.403C76.5414 143.482 76.9846 143.755 78.7575 144.419C79.3174 144.633 82.5017 144.728 83.12 144.55C85.2079 143.945 85.9193 143.553 86.9225 142.451C87.5407 141.762 88.1006 140.79 88.2639 140.114L88.3455 139.794H86.2926C84.263 139.794 84.2282 139.794 84.1348 140.055C83.9949 140.434 83.4466 140.956 82.8983 141.252C82.2569 141.597 80.2972 141.62 79.714 141.3C78.781 140.79 78.1628 139.841 77.9994 138.703L77.9177 138.133L83.26 138.11L88.6138 138.074L88.5787 137.362C88.4389 134.196 87.2607 132.168 84.8929 130.97C83.6099 130.329 81.4869 129.973 80.1573 130.199ZM82.7118 133.686C82.8751 133.781 83.0967 133.887 83.1899 133.923C83.4466 134.03 84.1464 135.156 84.0997 135.382C84.0648 135.56 83.7849 135.583 81.1721 135.583C79.3641 135.583 78.2794 135.536 78.2443 135.465C78.2211 135.393 78.3026 135.156 78.4076 134.931C78.7575 134.243 79.504 133.686 80.3088 133.508C80.9621 133.366 82.3384 133.472 82.7118 133.686Z" fill="#8660D0"/>
<path id="Vector_8" d="M28.1879 130.205C28.1644 130.229 27.9297 130.3 27.6715 130.36C26.8387 130.552 25.8885 130.958 25.9707 131.09C26.0176 131.174 25.9941 131.186 25.9238 131.138C25.7478 131.03 25.4545 131.198 24.6217 131.903C23.0379 133.255 22.2051 135.145 22.2051 137.406C22.2051 138.734 22.4749 140.061 22.8503 140.636C22.9675 140.803 23.085 141.042 23.1319 141.174C23.167 141.306 23.3195 141.545 23.472 141.712C23.6246 141.88 23.7771 142.095 23.8122 142.203C24 142.681 25.7009 143.83 26.956 144.308C27.789 144.631 27.9297 144.643 29.83 144.643C31.8596 144.643 32.5868 144.523 33.5136 144.033C33.6778 143.937 33.889 143.865 33.971 143.865C34.0416 143.865 34.1119 143.806 34.1119 143.746C34.1119 143.674 34.1705 143.626 34.2408 143.626C34.4168 143.626 35.2498 142.968 35.7425 142.442C36.5284 141.581 37.0329 140.624 37.4083 139.26C37.725 138.088 37.5137 134.738 37.1267 134.978C37.0445 135.025 37.0329 134.978 37.0798 134.846C37.1854 134.571 36.6809 133.59 36.0006 132.753C35.4609 132.083 34.2761 131.126 33.76 130.922C33.5958 130.863 33.3142 130.731 33.1148 130.647C32.3523 130.288 31.191 130.109 29.7012 130.133C28.8916 130.157 28.2113 130.181 28.1879 130.205ZM30.9094 134.069C31.7775 134.439 31.9651 134.547 32.3405 134.918C32.845 135.408 33.3142 136.437 33.3846 137.179C33.4433 137.765 33.1148 139.081 32.927 139.081C32.8684 139.081 32.8215 139.152 32.8215 139.248C32.8215 139.332 32.7393 139.475 32.6337 139.571C32.5165 139.667 32.4777 139.939 32.5165 140.026C32.5553 140.112 32.3739 140.043 32.3739 140.043C32.3739 140.043 32.2936 140.002 31.6953 140.42C31.1792 140.803 31.1204 140.815 30.0178 140.815C29.0441 140.815 28.7978 140.767 28.3286 140.528C27.2142 139.942 26.6511 139.081 26.5337 137.789C26.4517 136.868 26.6042 136.162 27.0266 135.468C27.3432 134.966 28.1526 134.32 28.7509 134.092C29.2436 133.913 30.4871 133.901 30.9094 134.069Z" fill="#8660D0"/>
<path id="Vector_9" d="M47.2489 130.344C46.4077 130.652 46.0288 130.877 45.389 131.458C45.0574 131.754 44.7612 131.968 44.7139 131.92C44.6782 131.885 44.6427 131.624 44.6427 131.363C44.6427 130.285 44.7731 130.344 42.3803 130.344H40.2598V137.384V144.436L42.4276 144.412L44.5836 144.388L44.6191 139.968C44.6546 135.203 44.6309 135.369 45.2825 134.634C46.1116 133.686 47.9833 133.651 48.8126 134.575C48.9311 134.694 49.1087 135.014 49.2272 135.262C49.4167 135.677 49.4522 136.246 49.4995 140.051L49.5588 144.353L51.6318 144.377L53.7048 144.388L53.7405 139.624C53.7642 135.168 53.7523 134.8 53.5272 134.006C53.0061 132.122 51.7621 130.783 50.0563 130.285C49.2627 130.06 47.936 130.083 47.2489 130.344Z" fill="#8660D0"/>
<path id="Vector_10" d="M62.1767 130.288C61.8577 130.36 61.4325 130.491 61.2316 130.563C61.0425 130.647 60.7236 130.779 60.5227 130.851C60.003 131.054 59.0461 131.689 58.5618 132.155C57.1678 133.484 56.4473 135.256 56.4473 137.351C56.4473 138.56 56.5653 139.23 56.9553 140.284C57.6522 142.163 59.4124 143.743 61.586 144.426C62.153 144.605 62.6492 144.653 64.1258 144.641C66.2639 144.641 66.7956 144.533 68.1186 143.863C69.9023 142.953 71.2962 141.241 71.6625 139.506L71.7806 138.967H69.548H67.3271L67.1498 139.29C66.9373 139.721 66.2994 140.32 65.7795 140.595C65.4606 140.775 65.1063 140.822 64.1849 140.822C63.0863 140.822 62.9682 140.799 62.472 140.475C61.6568 139.949 61.4088 139.685 61.0662 138.955C60.4756 137.746 60.6528 136.262 61.5032 135.16C62.3773 134.047 64.2202 133.616 65.5552 134.214C66.3349 134.562 66.9963 135.124 67.1972 135.615L67.3389 135.974H69.5717H71.8043L71.7217 135.579C71.5089 134.442 70.7411 133.077 69.7724 132.12C69.1936 131.557 68.2763 131.025 67.9532 130.946C67.8612 130.921 67.8309 130.888 67.7575 130.817C67.55 130.714 67.1735 130.503 66.1577 130.288C65.1534 130.085 63.0508 130.072 62.1767 130.288Z" fill="#8660D0"/>
<path id="Vector_11" d="M98.9905 130.162C98.1604 130.269 96.4883 131.028 96.263 131.396C96.2275 131.468 96.1206 131.515 96.0258 131.515C95.9191 131.515 95.8479 131.337 95.8243 130.945L95.7886 130.388L93.6896 130.352L91.5789 130.328L91.555 141.187C91.5432 147.156 91.5314 152.247 91.5314 152.485L91.5195 152.924H93.6542L95.7886 152.936L95.8243 148.189C95.8361 145.578 95.8716 143.371 95.9073 143.288C95.9428 143.181 96.1088 143.24 96.5002 143.501C96.7967 143.703 97.7217 144.189 97.7217 144.189C97.7217 144.189 98.5043 144.51 99.9985 144.51C101.481 144.51 101.659 144.486 102.418 144.178C105.193 143.05 106.877 140.439 106.877 137.271C106.877 136.274 106.734 135.526 106.307 134.422C106.058 133.734 105.865 133.579 105.548 133.058C105.511 132.998 105.453 132.904 105.453 132.904C105.453 132.904 105.098 132.417 104.659 131.99C103.853 131.206 102.761 130.554 101.848 130.305C101.35 130.174 99.6191 130.079 98.9905 130.162ZM100.591 134.221C101.41 134.612 101.931 135.17 102.287 136.001C102.667 136.903 102.702 137.674 102.382 138.529C102.133 139.158 101.516 139.941 101.516 139.941C101.516 139.941 101.184 140.107 100.888 140.309C100.414 140.629 100.188 140.689 99.3107 140.76C98.7415 140.807 98.2671 140.807 98.2434 140.748C98.2197 140.7 98.1367 140.653 98.0656 140.653C97.7808 140.653 96.9271 140.155 96.595 139.787C95.6346 138.718 95.3855 137.188 95.9785 135.906C96.4172 134.957 97.1524 134.304 98.101 133.995C98.6466 133.817 100.022 133.936 100.591 134.221Z" fill="#8660D0"/>
<path id="Vector_12" d="M153.371 130.301C151.228 130.777 149.224 132.706 148.498 135.003C148.018 136.514 148.076 138.847 148.639 140.287C149.177 141.691 150.454 143.132 151.837 143.929C152.727 144.441 153.605 144.643 154.882 144.643C156.815 144.643 157.788 144.238 159.228 142.834L159.826 142.251L160.037 142.584C160.365 143.096 161.185 143.846 161.688 144.096C161.935 144.215 162.251 144.369 162.38 144.441C162.509 144.512 163.118 144.595 163.727 144.619C164.652 144.655 164.875 144.631 165.004 144.476C165.121 144.334 165.168 143.822 165.179 142.632L165.191 140.977H164.758C164.172 140.965 163.703 140.727 163.516 140.335C163.399 140.085 163.364 138.906 163.375 135.181V130.361L161.243 130.385L159.1 130.42L159.088 130.92C159.088 131.206 159.053 131.468 159.006 131.503C158.971 131.551 158.561 131.337 158.104 131.039C156.78 130.182 155.093 129.921 153.371 130.301ZM157.342 134.253C158.467 134.848 159.182 135.979 159.252 137.288C159.299 137.99 159.264 138.168 158.924 138.847C158.479 139.775 158.104 140.168 157.237 140.585C156.628 140.87 156.499 140.894 155.609 140.823C155.07 140.787 154.473 140.656 154.262 140.549C153.699 140.251 152.949 139.43 152.692 138.811C152.399 138.121 152.376 136.74 152.645 136.181C152.75 135.967 152.832 135.741 152.832 135.669C152.844 135.431 153.817 134.539 154.414 134.229C154.929 133.955 155.105 133.932 155.937 133.967C156.593 133.991 157.015 134.086 157.342 134.253Z" fill="#8660D0"/>
<path id="Vector_13" d="M170.399 130.292C169.511 130.518 168.787 130.923 168.156 131.543C167.455 132.234 167.186 132.734 166.941 133.699C166.766 134.438 166.766 134.545 166.941 135.248C167.046 135.665 167.244 136.177 167.361 136.391C167.887 137.261 169.219 138.143 170.925 138.75C172.432 139.286 173.121 139.918 172.888 140.561C172.502 141.681 170.551 141.562 169.535 140.359L169.149 139.906L167.759 140.621C166.987 141.014 166.31 141.383 166.263 141.431C166.088 141.598 166.625 142.455 167.256 143.039C167.981 143.706 168.869 144.171 169.943 144.469C170.551 144.635 171.018 144.671 172.163 144.624C173.495 144.576 173.647 144.54 174.325 144.195C176.031 143.313 176.813 142.038 176.813 140.192C176.813 138.298 175.972 137.13 173.834 136.082C173.191 135.76 172.467 135.426 172.222 135.343C171.544 135.105 170.983 134.581 171.053 134.259C171.17 133.675 171.357 133.472 171.836 133.341C172.455 133.187 173.413 133.449 174.033 133.937C174.453 134.271 174.465 134.283 174.629 134.044C174.71 133.925 175.072 133.496 175.423 133.115C176.626 131.793 176.545 131.948 176.159 131.566C175.68 131.114 174.453 130.506 173.542 130.292C172.631 130.077 171.264 130.077 170.399 130.292Z" fill="#8660D0"/>
</g>
<defs>
<clipPath id="clip0_776_3153">
<rect width="193" height="153" fill="white"/>
</clipPath>
</defs>
</svg>
